<?xml version="1.0" encoding="UTF-8"?>
<svg id="Capa_1" data-name="Capa 1" xmlns="http://www.w3.org/2000/svg" version="1.1" viewBox="0 0 201.4 211.4">
  <defs>
    <style>
      .cls-1 {
        fill: #61ffe4;
        stroke-width: 0px;
      }
    </style>
  </defs>
  <g id="Capa_2" data-name="Capa 2">
    <g id="Capa_1-2" data-name="Capa 1-2">
      <path class="cls-1" d="M200.2,146c-2-4-5.7-6.9-10.1-8.1l-2.6-69.7c.9-.3,1.9-.6,2.7-1.1,7.7-3.9,10.8-13.4,6.9-21.1-3.9-7.7-13.4-10.8-21.1-6.9-2.5,1.3-4.7,3.2-6.2,5.6l-53.1-24.3c2.1-8.4-3.1-16.9-11.5-19s-16.9,3.1-19,11.5c-2.1,8.4,3.1,16.9,11.5,19,.3,0,.7.2,1,.2l.7,59.7c-3.4.4-6.6,2-8.8,4.6l-58.6-32.6c2.7-8.2-1.7-17.1-10-19.9-8.2-2.7-17.1,1.7-19.9,10-2.7,8.2,1.7,17.1,10,19.9.8.3,1.6.5,2.4.6l1.6,65.8c-8.2,3-12.4,12-9.4,20.1s12,12.4,20.1,9.4c.7-.2,1.3-.5,1.9-.8,2.2-1.1,4.1-2.7,5.5-4.7l55.8,26.4c-2.2,8.4,2.9,17,11.2,19.2,8.4,2.2,17-2.9,19.2-11.2,2.2-8.4-2.9-17-11.2-19.2-1-.2-1.9-.4-2.9-.5l-.7-60.4c.5-.2,1-.4,1.5-.6,1.5-.8,2.9-1.8,4-3.1l60.1,33.5c-2.7,8.2,1.8,17.1,10,19.9,8.2,2.7,17.1-1.8,19.9-10,1.3-4,1-8.3-.9-12.1h0ZM100.4,179.7c-.8.2-1.5.6-2.3.9-2.2,1.1-4.1,2.7-5.5,4.7l-55.8-26.4c2.2-8.4-2.9-16.9-11.3-19.1-1.2-.3-2.4-.5-3.6-.5l-1.6-64.9c3.4-.7,6.5-2.6,8.7-5.3l58.5,32.6c-2.2,7.3,1.9,14.9,9.2,17.1.9.3,1.9.5,2.9.5l.7,60.4ZM114,109.6c2.1-7.1-1.7-14.5-8.7-16.9l-.7-60.4c1.4-.3,2.7-.7,4-1.4,2.2-1.2,4.2-2.8,5.6-4.9l53.4,24.4c-1.6,8.5,4,16.7,12.5,18.3.5,0,1,.2,1.4.2l2.6,68.7c-3.9.5-7.5,2.5-10,5.5l-60.1-33.5Z"/>
    </g>
  </g>
</svg>